<svg id="_8679153_shopping_cart_fill_icon" data-name="8679153_shopping_cart_fill_icon" xmlns="http://www.w3.org/2000/svg" width="26" height="26" viewBox="0 0 26 26">
  <path id="Path_41" data-name="Path 41" d="M0,0H26V26H0Z" fill="none"/>
  <path id="Path_42" data-name="Path 42" d="M6.333,9.583h15.1l.542-2.167H8.5V5.25H23.363A1.083,1.083,0,0,1,24.414,6.6L21.706,17.43a1.083,1.083,0,0,1-1.051.82H5.25a1.083,1.083,0,0,1-1.083-1.083v-13H2V2H5.25A1.083,1.083,0,0,1,6.333,3.083Zm0,15.167A2.167,2.167,0,1,1,8.5,22.583,2.167,2.167,0,0,1,6.333,24.75Zm13,0A2.167,2.167,0,1,1,21.5,22.583,2.167,2.167,0,0,1,19.333,24.75Z" transform="translate(0.167 0.167)" fill="#fff"/>
</svg>
